<?xml version="1.0" encoding="utf-8"?>
<!-- Generator: Adobe Illustrator 24.1.2, SVG Export Plug-In . SVG Version: 6.00 Build 0)  -->
<svg version="1.1" id="Layer_1" xmlns="http://www.w3.org/2000/svg" xmlns:xlink="http://www.w3.org/1999/xlink" x="0px" y="0px"
	 viewBox="0 0 1000 1000" style="enable-background:new 0 0 1000 1000;" xml:space="preserve">
<style type="text/css">
	.st0{fill:none;stroke:#00979C;stroke-width:59;}
	.st1{fill:none;stroke:#00979C;stroke-width:25;}
	.st2{fill:none;stroke:#00979C;stroke-width:32;}
</style>
<g>
	<path class="st0" d="M314.8,359.3c-95.1-7.6-175,105-136,192c38,94.4,181,120,249,44.4c65.9-64.6,91.3-164,172-215
		c82-56,214-3.1,230,96.4c15.6,95.3-87.1,188-180,160c-68.7-15.5-118-74.2-146-136c-34.5-59-79.6-122-150-138
		c-12.5-2.8-25.4-4-38.2-3.9L314.8,359.3z"/>
	<path class="st1" d="M258.8,494.3h120"/>
	<path class="st2" d="M626.8,494.3h100 M675.8,444.3v100"/>
</g>
</svg>
